<svg width="180" height="180" xmlns="http://www.w3.org/2000/svg" version="1.1">

 <g>
  <title>Layer 1</title>
  <g id="svg_6">
   <ellipse stroke-width="0" ry="90" rx="90" id="svg_5" cy="90" cx="90" stroke="#000" fill="#00216d"/>
   <path id="svg_1" fill-rule="evenodd" fill="#ffffff" d="m134.5,38.08628c-11.557,2.88 -30.343,14.873 -44.285,28.273c-6.827,6.562 -7.708,7.084 -14,8.305c-10.676,2.07 -29.664,8.626 -40.761,14.072c-10.464,5.136 -19.454,12.231 -19.454,15.354c0,1.922 7.971,5.97 10.709,5.439c3.072,-0.596 2.495,-2.832 -1.121,-4.343c-1.973,-0.824 -3.588,-1.94 -3.588,-2.479c0,-4.736 35.664,-20.846 52.682,-23.797l5.182,-0.898l-2.682,5.101c-2.304,4.383 -2.682,6.309 -2.682,13.679c0,7.808 0.273,9.02 3.033,13.485c4.291,6.94 12.209,10.963 21.398,10.872c6.899,-0.069 11.069,-1.545 11.069,-3.918c0,-1.14 -0.588,-1.208 -3.045,-0.351c-1.675,0.584 -5.941,0.877 -9.48,0.652c-14.912,-0.95 -23.002,-14.112 -17.891,-29.11c3.253,-9.546 12.662,-14.04 29.416,-14.049c7.405,-0.003 10.713,0.475 15,2.168c6.518,2.574 7,2.622 7,0.699c0,-4.005 -13.754,-7.03 -28.531,-6.276c-9.891,0.505 -10.373,0.438 -9.439,-1.306c3.059,-5.716 25.707,-21.754 36.808,-26.065c6.063,-2.355 10.564,-2.69 18.912,-1.407c6.141,0.944 7.293,-0.733 2,-2.911c-5.15,-2.119 -10.845,-2.535 -16.25,-1.189m-104.5,69.448c0,1.854 2.565,2.936 5.793,2.443c1.833,-0.28 3.129,-1.004 2.923,-1.633c-0.449,-1.368 -8.716,-2.136 -8.716,-0.81m10,0.013c0,1.409 1.126,2.056 2.598,1.491c2.087,-0.801 1.695,-2.324 -0.598,-2.324c-1.1,0 -2,0.375 -2,0.833m80.25,3.289c-5.106,1.963 -6.261,3.135 -4.287,4.355c1.201,0.743 11.037,-4.153 11.037,-5.494c0,-1.319 -0.632,-1.212 -6.75,1.139m-9.25,4.711c0,1.409 1.126,2.056 2.598,1.491c2.087,-0.801 1.695,-2.324 -0.598,-2.324c-1.1,0 -2,0.375 -2,0.833m-78.053,11.417c-0.029,0.688 -0.628,4.758 -1.33,9.046c-0.76,4.638 -0.906,8.025 -0.36,8.363c1.651,1.02 2.924,-1.359 3.64,-6.806l0.704,-5.353l1.746,5.813c1.482,4.934 2.067,5.767 3.868,5.5c1.55,-0.228 2.568,-1.648 3.772,-5.258c1.735,-5.202 3.013,-4.57 3.013,1.492c0,2.612 2.922,5.697 4.193,4.427c0.251,-0.251 -0.116,-3.948 -0.816,-8.215c-0.699,-4.268 -1.295,-8.321 -1.324,-9.009c-0.029,-0.687 -1.091,-1.25 -2.36,-1.25c-1.948,0 -2.616,0.964 -4.286,6.185l-1.979,6.184l-1.872,-6.184c-1.6,-5.286 -2.213,-6.185 -4.214,-6.185c-1.288,0 -2.366,0.563 -2.395,1.25m25.254,0.778c-2.718,2.532 -3.615,5.953 -2.758,10.52c0.787,4.193 5.637,7.151 9.951,6.068c3.988,-1.001 3.266,-3.44 -1.126,-3.806c-3.064,-0.254 -3.908,-0.814 -4.717,-3.128c-1.483,-4.242 1.051,-8.185 5.252,-8.172c2.388,0.007 3.197,-0.436 3.197,-1.75c0,-2.599 -6.926,-2.409 -9.799,0.268"/>
  </g>
 </g>
</svg>